
<svg xmlns="http://www.w3.org/2000/svg" version="1.1" xmlns:xlink="http://www.w3.org/1999/xlink" preserveAspectRatio="none" x="0px" y="0px" width="256px" height="256px" viewBox="0 0 256 256">
<defs>
<g id="icon_full_1_Layer1_0_FILL">
<path fill="#1639FF" stroke="none" d="
M 233 19.8
Q 219.25 6 199.8 6
L 57.25 6
Q 37.8 6 24.05 19.8 10.3 33.6 10.3 53.1
L 10.3 196
Q 10.3 215.5 24.05 229.3 37.8 243.1 57.25 243.1
L 199.8 243.1
Q 219.25 243.1 233 229.3 246.75 215.5 246.75 196
L 246.75 53.1
Q 246.75 33.6 233 19.8 Z"/>
</g>

<g id="parts_body_0_Layer0_0_FILL">
<path fill="#000000" stroke="none" d="
M 125 46.55
Q 125.4890625 43.9939453125 125.3 42.05 125.05 39.1 123.25 35.25 121.8 32 118.35 26.65 115.3 21.85 112.7 18.65 109.3 14.5 105.75 11.75 103.45 10 99.6 7.85 90.65 2.9 82.65 1.1 72.9 -1.1 64.45 1.1 60.05 2.3 54.2 5.2 49.35 7.65 47.1 9.5 43.95 12.15 41.35 16.6 39.75 19.4 37.3 25.05
L 36.8 26.3
Q 36.7 25.85 36.65 25.4 35.95 19.4 36.05 15.65 36.05 13.45 35.7 12.6 35.35 11.85 34.65 11.45 33.9 11 33.2 11.3 31.75 11.8 32 14.9 32.35 18.95 31.7 24.6 31.3 27.85 30.4 34.3 29.9046875 38.461328125 29.5 46.55 29.5037109375 46.624609375 29.5 46.7
L 24.8 139.65
Q 24.75 140.9 25.05 141.65 23.4 141.55 21.6 141.65 20.25 141.7 18.85 141.9 13.16171875 142.7126953125 8.9 145.2 8.441796875 145.463671875 8 145.75 2.7 149.25 0.85 154.65 -1 160.1 1.25 167.6 2.5 171.8 4.45 174.05 6.3 176.2 9.5 177.7 11.5 178.6 15.55 179.85 19.45 181 21.6 181.5 22 181.6 22.3 181.65 26.1 182.45 29.2 182.35 33.15 182.25 39.4 180.25 43.8 178.95 46.15 177.6 49.15 175.95 52.9 171.8 55.4939453125 169.008203125 57.4 166.4 59.8771484375 163.0759765625 61.25 160.05 63.2 155.75 64.75 147.35 65.95 141.05 66.9 133.95 66.9916015625 133.225 67.05 132.55 67.23515625 131.1404296875 67.3 129.95 67.47578125 128.2875 67.5 127.05 67.55 125.05 67.3 123.35 69.2 123.9 70.6 124.15 74.75 124.9 78 124.05 78.153125 128.296875 78.5 132.55 79.4927734375 144.972265625 82.1 157.45 82.15 157.8 82.25 158.1 80.3 158.45 80.05 158.5 77.95 158.95 76.6 159.9 74.5 161.4 73 165.15 72.7404296875 165.784375 72.5 166.4 71.1783203125 170.0546875 71.05 173.05 70.9 176.9 72.55 180.7 74.1 184.3 76.95 187.2 82.15 192.4 90.65 194.5 96.7 196.05 106.3 195.95 115.5 195.75 121.15 194 129.2 191.55 133.4 185.8 136.05 182.2 136.7 177.65 137.4 173.1 135.95 168.9 135.501171875 167.599609375 134.85 166.4 133.462890625 163.7248046875 131.15 161.55 128.6 159.1 125.5 157.85 125.45 157.5 125.45 157.15 125.3 154.05 125.65 149.85 125.8783203125 147.05234375 126.05 145.05 126.1642578125 143.551171875 126.25 142.5 126.621484375 137.843359375 126.8 132.55 126.9857421875 128.579296875 127.05 124.25 127.0537109375 123.764453125 127.05 123.25 127.0642578125 120.6623046875 127.05 117.35 127.010546875 112.4447265625 126.9 105.95 126.85 102.4 126.8 99.15 126.8 98.85 126.8 98.6 126.8 98.55 126.8 98.5 126.766015625 97.360546875 126.75 96.25 126.7076171875 94.9 126.65 93.6 126.662109375 92.84140625 126.65 92.1 126.6009765625 90.63046875 126.55 89.2 126.3412109375 83.4439453125 126.1 78.7 125.9345703125 75.555859375 125.7 72.85 125.618359375 71.4677734375 125.5 70.2 124.7 62.9 124.3 57.75 124 54.45 123.85 52.05 123.85 51.65 123.8 51.35 124.6509765625 48.727734375 125 46.55
M 108.2 25.8
Q 110.35 28.65 113.25 33.45 115.6 37.3 116.5 39.85
L 117.35 42.6
Q 117.9 44.25 118.45 45.25 118.7130859375 45.6884765625 119.25 46.55 119.3201171875 46.6708984375 119.4 46.8 119.9 47.7 119.95 48.45 120 49.15 119.75 50.05 119.55 50.6 119.2 51.65 119 52.55 119.15 53.35 119.35 54.15 119.85 54.55 119.9 56.15 120 57.75 120.3248046875 65.3 120.6 72.85 120.6841796875 74.6 120.75 76.35 120.9931640625 83.98359375 121.2 91.65 121.19453125 91.8822265625 121.2 92.1 121.2169921875 92.85 121.2 93.6 121.2669921875 95.05 121.3 96.5 120.6591796875 96.6478515625 119.9 96.85 118.4626953125 97.3443359375 116.65 98.15 113.383984375 99.51953125 110.45 100.6 103.6328125 103.1515625 98.6 104.2 90.75 105.85 79.9 105.95 74.864453125 106.0302734375 69.65 105.85 65.196484375 105.725 60.6 105.4 56.238671875 105.0173828125 53.55 104.55
L 53.55 104.55
Q 52.7478515625 104.400390625 52.1 104.25 42.45 102.1 35.6 94.85 35.35 94.6 35.15 94.4 35.16796875 94.0064453125 35.2 93.6 35.2357421875 92.870703125 35.3 92.1 35.65 86.3 36.05 78.05
L 36.5 69.4 37.55 48.2
Q 37.5853515625 47.3498046875 37.6 46.55 37.6353515625 46.2205078125 37.65 45.9 37.8 45.45 37.95 45 41.35 35 46.95 23.1 49.1 18.7 50.75 16.95 52.5 15.15 55.4 13.6 66.45 7.3 76.45 8.1 81.65 8.5 89.2 11.65 97.15 14.95 102.05 19.05 105.2 21.75 108.2 25.8
M 80.8 115.9
Q 79.4 115.75 76.85 116.1 64.05 117.75 55 114 53.7 113.45 53.1 113.6 52.25 113.8 51.9 114.8 51.7955078125 115.130859375 51.75 115.45 51.7568359375 116.04609375 52.05 116.6 52.2587890625 116.9853515625 52.6 117.35 53.1298828125 117.848046875 53.9 118.3 54.3712890625 118.5595703125 54.9 118.8 56.132421875 119.36015625 57.6 119.95 58.0810546875 120.1474609375 58.6 120.35 58.55 121.15 58.7 122.1 58.7828125 122.5763671875 58.9 123.25 58.9625 123.5697265625 59 123.9 59.1748046875 124.6548828125 59.35 125.55 59.65 127.85 59.05 132.35 59.03515625 132.4501953125 59 132.55 58.8365234375 133.8140625 58.65 135.05 58.1908203125 138.015234375 57.7 140.8 57.5935546875 140.73671875 57.45 140.65 56.9740234375 140.35546875 56.45 140.05 52.473828125 137.8857421875 46.4 136.6 43.6 136.05 41.75 136 38.8 135.85 35.2 136.5 34.2794921875 136.6533203125 33.1 136.9 31.4564453125 137.27421875 29.3 137.85 29.329296875 137.595703125 29.35 137.3 29.4353515625 136.5552734375 29.5 135.65 29.6703125 133.3349609375 29.7 132.55 29.75 132.1818359375 29.75 132.15 30.05 129.15 30.85 124.95 31.0263671875 124.05859375 31.15 123.25 31.88359375 119.704296875 32.25 117.75 32.2875 117.55078125 32.3 117.35 33.7232421875 109.80546875 34.6 100.6 35.15 101.4 35.75 102.4 36.4833984375 103.57734375 37.15 104.5 38.209765625 106.009765625 39.1 106.9 42.4 110.1 49.15 111.75 55.45 113.25 65.95 113.7 76.55 114.25 84.25 113.85 94.15 113.4 102.25 111.45 107.75 110.1 118.45 106.2 118.5390625 106.1685546875 118.6 106.1 119.6416015625 105.7734375 120.5 105.4 121.0044921875 105.2056640625 121.45 105 121.5451171875 111.1828125 121.6 117.35 121.612890625 119.5134765625 121.6 121.65 121.6283203125 122.1876953125 121.6 122.7 121.6267578125 122.975 121.6 123.25 121.655078125 127.9037109375 121.65 132.55 121.6576171875 139.0744140625 121.6 145.6 121.5982421875 148.020703125 121.55 150.45 120.9333984375 150.203125 120.15 150 118.608984375 149.6529296875 117 149.45 112.9341796875 148.902734375 108.6 149.3 106.45 149.55 102.25 150.35
L 98 151.15
Q 92.4587890625 152.250390625 89.55 153 89.5185546875 152.88046875 89.45 152.75 89.4201171875 152.493359375 89.35 152.2 87.75 146.15 86.95 137.1 86.784765625 134.681640625 86.6 132.55 86.2111328125 126.8892578125 85.85 123.25 85.7755859375 122.4513671875 85.7 121.75 85.3 118.55 84.15 117.35 83 116.1 80.8 115.9
M 41.4 142.7
Q 46.3146484375 143.753125 49.4 144.65 50.751953125 145.0775390625 51.75 145.45 53.7 146.2 54.45 147.1 54.8 147.5 55.55 148.75 55.744921875 149.09140625 55.95 149.35
L 55.85 150.95
Q 55.104296875 154.1236328125 54.4 155.7 53.55 157.75 50.7 162.05 50.5908203125 162.2125 50.45 162.35 48.7140625 164.9876953125 47.6 166.4 47.5697265625 166.425390625 47.55 166.45 45.7 168.8 43.8 170.25 41.453125 172.03984375 38.5 173 32.7638671875 174.9251953125 24.75 173.7 23.15 173.45 21.6 173.15 18.3 172.4 15.45 171.35 12.1 170.15 10.75 168.7 9.87109375 167.76796875 9.3 166.4 9.074609375 165.8927734375 8.9 165.3 8.6619140625 164.5400390625 8.5 163.65 8.4224609375 163.281640625 8.35 162.9 8.21328125 162.1328125 8.15 161.4 7.88671875 158.323046875 8.9 156.2 8.948828125 156.0990234375 9 156 10.45 153.25 13.9 151.7 16.65 150.45 21.6 149.85 22.05 149.75 22.55 149.7 25.85 149.25 27.55 149.15 30.35 148.95 32.55 149.3 34.5 149.6 35.2 149.5 36.8 149.2 37.05 147.85 37.0876953125 147.6326171875 37.05 147.4 37.03046875 147.133984375 36.9 146.85 36.5701171875 146.16875 35.65 145.45 32.866015625 143.298828125 29.3 142.35 29.558203125 142.2873046875 29.8 142.2 32.064453125 141.520703125 34.95 141.7 35.24375 141.7216796875 35.55 141.75 37.6 141.9 41.4 142.7
M 79.55 176.6
Q 79.125 175.053515625 79.15 173.35 79.15 169.9 80.95 167.15 81.196875 166.762109375 81.45 166.4 83.1373046875 164.1955078125 85.8 162.95 88.95 161.5 92.15 161.95 93.75 162.15 94.25 162.1 95.45 162 95.95 161.25 96.65 160.25 95.8 159 95.7572265625 158.9359375 95.7 158.85 95.100390625 158.06796875 93.8 157.65 92.3828125 157.1470703125 90.6 157.1 92.53671875 156.6138671875 94.7 156.3 96.9994140625 155.9796875 99.55 155.85 103.25 155.7 110.15 156 114.0658203125 156.18203125 116.75 156.45 117.6623046875 156.5671875 118.4 156.65 119.132421875 156.7869140625 119.7 156.9 118.9603515625 157.059375 118.35 157.45 118.0111328125 157.655078125 117.7 157.9 116.9154296875 158.6033203125 116.65 159.6 116.520703125 160.15625 116.55 160.8 116.5859375 161.51875 116.85 162.15 116.9953125 162.4109375 117.15 162.65 117.7 163.55 118.55 164.05 119.2 164.4 120.55 164.7 121.365625 164.8630859375 121.9 165 122.3490234375 165.1087890625 122.6 165.2 123.57578125 165.5794921875 124.5 166.4 125.3486328125 167.092578125 126.15 168.1 127.7818359375 170.0580078125 128.5 171.85 128.798828125 172.5767578125 128.95 173.25 129.55 176.05 128.25 178.95 126.95 181.7 124.5 183.6 121.851171875 185.5607421875 117.55 186.65 115.627734375 187.1380859375 113.35 187.45 104.25 188.65 94.9 187.1 84.5 185.25 80.85 179.55 79.9767578125 178.1529296875 79.55 176.6 Z"/>

<path fill="#4A0105" stroke="none" d="
M 93.8 157.65
Q 95.100390625 158.06796875 95.7 158.85 95.4052734375 157.4626953125 94.7 156.3 92.53671875 156.6138671875 90.6 157.1 92.3828125 157.1470703125 93.8 157.65
M 118.4 156.65
Q 118.283984375 156.88046875 118.15 157.1 117.922265625 157.4826171875 117.7 157.9 118.0111328125 157.655078125 118.35 157.45 118.9603515625 157.059375 119.7 156.9 119.132421875 156.7869140625 118.4 156.65
M 79.55 176.6
Q 79.9767578125 178.1529296875 80.85 179.55 84.5 185.25 94.9 187.1 104.25 188.65 113.35 187.45 115.627734375 187.1380859375 117.55 186.65 121.851171875 185.5607421875 124.5 183.6 126.95 181.7 128.25 178.95 129.55 176.05 128.95 173.25 128.798828125 172.5767578125 128.5 171.85 127.7818359375 170.0580078125 126.15 168.1 125.3486328125 167.092578125 124.5 166.4 123.57578125 165.5794921875 122.6 165.2 122.3490234375 165.1087890625 121.9 165 122.5263671875 165.6890625 123 166.4 126.2232421875 170.8607421875 124.75 176.2 122.6978515625 178.0205078125 120.1 179.4 111.45 184 101.55 183.8 89.7708984375 183.528125 79.55 176.6
M 29.8 142.2
Q 29.558203125 142.2873046875 29.3 142.35 32.866015625 143.298828125 35.65 145.45 36.5701171875 146.16875 36.9 146.85
L 34.95 141.7
Q 32.064453125 141.520703125 29.8 142.2
M 54.45 147.1
Q 53.7 146.2 51.75 145.45 50.751953125 145.0775390625 49.4 144.65 48.8857421875 156.304296875 44.1 165.2 42.3017578125 165.8419921875 40.45 166.4 34.74375 168.1255859375 28.8 169.05 19.3056640625 170.5587890625 12.6 166.4 10.628125 165.18125 8.9 163.45 8.6220703125 163.2119140625 8.35 162.9 8.4224609375 163.281640625 8.5 163.65 8.6619140625 164.5400390625 8.9 165.3 9.074609375 165.8927734375 9.3 166.4 9.87109375 167.76796875 10.75 168.7 12.1 170.15 15.45 171.35 18.3 172.4 21.6 173.15 23.15 173.45 24.75 173.7 32.7638671875 174.9251953125 38.5 173 41.453125 172.03984375 43.8 170.25 45.7 168.8 47.55 166.45 47.5697265625 166.425390625 47.6 166.4 48.7140625 164.9876953125 50.45 162.35 50.5908203125 162.2125 50.7 162.05 53.55 157.75 54.4 155.7 55.104296875 154.1236328125 55.85 150.95
L 55.95 149.35
Q 55.744921875 149.09140625 55.55 148.75 54.8 147.5 54.45 147.1 Z"/>

<path fill="#663333" stroke="none" d="
M 79.15 173.35
Q 79.125 175.053515625 79.55 176.6 89.7708984375 183.528125 101.55 183.8 111.45 184 120.1 179.4 122.6978515625 178.0205078125 124.75 176.2 126.2232421875 170.8607421875 123 166.4 122.5263671875 165.6890625 121.9 165 121.365625 164.8630859375 120.55 164.7 119.2 164.4 118.55 164.05 117.7 163.55 117.15 162.65 116.9953125 162.4109375 116.85 162.15 116.5859375 161.51875 116.55 160.8 116.520703125 160.15625 116.65 159.6 116.9154296875 158.6033203125 117.7 157.9 117.922265625 157.4826171875 118.15 157.1 118.283984375 156.88046875 118.4 156.65 117.6623046875 156.5671875 116.75 156.45 114.0658203125 156.18203125 110.15 156 103.25 155.7 99.55 155.85 96.9994140625 155.9796875 94.7 156.3 95.4052734375 157.4626953125 95.7 158.85 95.7572265625 158.9359375 95.8 159 96.65 160.25 95.95 161.25 95.45 162 94.25 162.1 93.75 162.15 92.15 161.95 88.95 161.5 85.8 162.95 83.1373046875 164.1955078125 81.45 166.4 81.196875 166.762109375 80.95 167.15 79.15 169.9 79.15 173.35
M 49.4 144.65
Q 46.3146484375 143.753125 41.4 142.7 37.6 141.9 35.55 141.75 35.24375 141.7216796875 34.95 141.7
L 36.9 146.85
Q 37.03046875 147.133984375 37.05 147.4 37.0876953125 147.6326171875 37.05 147.85 36.8 149.2 35.2 149.5 34.5 149.6 32.55 149.3 30.35 148.95 27.55 149.15 25.85 149.25 22.55 149.7 22.05 149.75 21.6 149.85 16.65 150.45 13.9 151.7 10.45 153.25 9 156 8.948828125 156.0990234375 8.9 156.2 7.88671875 158.323046875 8.15 161.4 8.21328125 162.1328125 8.35 162.9 8.6220703125 163.2119140625 8.9 163.45 10.628125 165.18125 12.6 166.4 19.3056640625 170.5587890625 28.8 169.05 34.74375 168.1255859375 40.45 166.4 42.3017578125 165.8419921875 44.1 165.2 48.8857421875 156.304296875 49.4 144.65 Z"/>

<path fill="#49259F" stroke="none" d="
M 121.6 121.65
Q 121.612890625 119.5134765625 121.6 117.35 121.5451171875 111.1828125 121.45 105 121.0044921875 105.2056640625 120.5 105.4 119.6416015625 105.7734375 118.6 106.1
L 117.15 145.2
Q 112.5357421875 144.759375 107.85 145.3 102.2 146 96.95 148.15 92.8501953125 149.842578125 89.45 152.75 89.5185546875 152.88046875 89.55 153 92.4587890625 152.250390625 98 151.15
L 102.25 150.35
Q 106.45 149.55 108.6 149.3 112.9341796875 148.902734375 117 149.45 118.608984375 149.6529296875 120.15 150 120.9333984375 150.203125 121.55 150.45 121.5982421875 148.020703125 121.6 145.6 121.6576171875 139.0744140625 121.65 132.55 121.655078125 127.9037109375 121.6 123.25 121.6267578125 122.975 121.6 122.7 121.6283203125 122.1876953125 121.6 121.65
M 54.9 118.8
Q 54.3712890625 118.5595703125 53.9 118.3 55.5791015625 120.3751953125 57.45 122.35
L 56.75 134.75
Q 53.1201171875 134.236328125 49.45 133.85 43.6 133.25 37.8 134.05 32.9529296875 134.693359375 29.35 137.3 29.329296875 137.595703125 29.3 137.85 31.4564453125 137.27421875 33.1 136.9 34.2794921875 136.6533203125 35.2 136.5 38.8 135.85 41.75 136 43.6 136.05 46.4 136.6 52.473828125 137.8857421875 56.45 140.05 56.9740234375 140.35546875 57.45 140.65 57.5935546875 140.73671875 57.7 140.8 58.1908203125 138.015234375 58.65 135.05 58.8365234375 133.8140625 59 132.55 59.03515625 132.4501953125 59.05 132.35 59.65 127.85 59.35 125.55 59.1748046875 124.6548828125 59 123.9 58.9625 123.5697265625 58.9 123.25 58.7828125 122.5763671875 58.7 122.1 58.55 121.15 58.6 120.35 58.0810546875 120.1474609375 57.6 119.95 56.132421875 119.36015625 54.9 118.8 Z"/>

<path fill="#6666FF" stroke="none" d="
M 76.85 116.1
Q 79.4 115.75 80.8 115.9 83 116.1 84.15 117.35 85.3 118.55 85.7 121.75 85.7755859375 122.4513671875 85.85 123.25 86.2111328125 126.8892578125 86.6 132.55 86.784765625 134.681640625 86.95 137.1 87.75 146.15 89.35 152.2 89.4201171875 152.493359375 89.45 152.75 92.8501953125 149.842578125 96.95 148.15 102.2 146 107.85 145.3 112.5357421875 144.759375 117.15 145.2
L 118.6 106.1
Q 118.5390625 106.1685546875 118.45 106.2 107.75 110.1 102.25 111.45 94.15 113.4 84.25 113.85 76.55 114.25 65.95 113.7 55.45 113.25 49.15 111.75 42.4 110.1 39.1 106.9 38.209765625 106.009765625 37.15 104.5 36.4833984375 103.57734375 35.75 102.4 35.15 101.4 34.6 100.6 33.7232421875 109.80546875 32.3 117.35 32.2875 117.55078125 32.25 117.75 31.88359375 119.704296875 31.15 123.25 31.0263671875 124.05859375 30.85 124.95 30.05 129.15 29.75 132.15 29.75 132.1818359375 29.7 132.55 29.6703125 133.3349609375 29.5 135.65 29.4353515625 136.5552734375 29.35 137.3 32.9529296875 134.693359375 37.8 134.05 43.6 133.25 49.45 133.85 53.1201171875 134.236328125 56.75 134.75
L 57.45 122.35
Q 55.5791015625 120.3751953125 53.9 118.3 53.1298828125 117.848046875 52.6 117.35 52.2587890625 116.9853515625 52.05 116.6 51.7568359375 116.04609375 51.75 115.45 51.7955078125 115.130859375 51.9 114.8 52.25 113.8 53.1 113.6 53.7 113.45 55 114 64.05 117.75 76.85 116.1 Z"/>

<path fill="#FFFFFF" stroke="none" d="
M 112.25 73.15
Q 111.8181640625 72.9984375 111.35 72.85 105.2548828125 70.7478515625 98.95 69.3 92.25 67.75 85.65 65.75 79.65 65.3 73.65 64.95 72.75 64.85 71.85 64.8 64.9 64 57.6 65.85 57.15 65.85 56.65 65.85 51.1 65.8 45.5 66.95 40.9 67.9 36.5 69.4
L 36.05 78.05
Q 35.65 86.3 35.3 92.1 35.2357421875 92.870703125 35.2 93.6 35.16796875 94.0064453125 35.15 94.4 35.35 94.6 35.6 94.85 42.45 102.1 52.1 104.25 52.7478515625 104.400390625 53.55 104.55
L 53.55 104.55
Q 59.6849609375 103.7931640625 65.65 103.4 68.8080078125 103.2353515625 71.9 103.15 81.25 102.9 90.4 101.55 92.5302734375 101.018359375 94.65 100.45 104.05 97.9 113.3 94.7 114.8375 94.1705078125 116.35 93.6 118.0009765625 92.9861328125 119.6 92.3
L 118.45 75.4
Q 115.361328125 74.2115234375 112.25 73.15 Z"/>

<path fill="#99CCFF" stroke="none" d="
M 113.25 33.45
Q 110.35 28.65 108.2 25.8 105.2 21.75 102.05 19.05 97.15 14.95 89.2 11.65 81.65 8.5 76.45 8.1 66.45 7.3 55.4 13.6 52.5 15.15 50.75 16.95 49.1 18.7 46.95 23.1 41.35 35 37.95 45 37.8 45.45 37.65 45.9 37.6353515625 46.2205078125 37.6 46.55 37.5853515625 47.3498046875 37.55 48.2
L 36.5 69.4
Q 40.9 67.9 45.5 66.95 51.1 65.8 56.65 65.85 57.15 65.85 57.6 65.85 64.9 64 71.85 64.8 72.75 64.85 73.65 64.95 79.65 65.3 85.65 65.75 92.25 67.75 98.95 69.3 105.2548828125 70.7478515625 111.35 72.85 111.8181640625 72.9984375 112.25 73.15 115.361328125 74.2115234375 118.45 75.4
L 119.6 92.3
Q 118.0009765625 92.9861328125 116.35 93.6 114.8375 94.1705078125 113.3 94.7 104.05 97.9 94.65 100.45 92.5302734375 101.018359375 90.4 101.55 81.25 102.9 71.9 103.15 68.8080078125 103.2353515625 65.65 103.4 59.6849609375 103.7931640625 53.55 104.55 56.238671875 105.0173828125 60.6 105.4 65.196484375 105.725 69.65 105.85 74.864453125 106.0302734375 79.9 105.95 90.75 105.85 98.6 104.2 103.6328125 103.1515625 110.45 100.6 113.383984375 99.51953125 116.65 98.15 118.4626953125 97.3443359375 119.9 96.85 120.6591796875 96.6478515625 121.3 96.5 121.2669921875 95.05 121.2 93.6 121.2169921875 92.85 121.2 92.1 121.19453125 91.8822265625 121.2 91.65 120.9931640625 83.98359375 120.75 76.35 120.6841796875 74.6 120.6 72.85 120.3248046875 65.3 120 57.75 119.9 56.15 119.85 54.55 119.35 54.15 119.15 53.35 119 52.55 119.2 51.65 119.55 50.6 119.75 50.05 120 49.15 119.95 48.45 119.9 47.7 119.4 46.8 119.3201171875 46.6708984375 119.25 46.55 118.7130859375 45.6884765625 118.45 45.25 117.9 44.25 117.35 42.6
L 116.5 39.85
Q 115.6 37.3 113.25 33.45 Z"/>
</g>

<g id="parts_Nicholas_Static_0_Layer3_0_FILL">
<path fill="#000000" stroke="none" d="
M 102.15 79
Q 100.9447265625 78.7 99.05 78.7 89.8 78.8 85.15 78.6 79.15 78.35 77.65 78.45 72.6 79.05 70.1 79 68.65 79 66.15 78.7 63.3 78.4 62.15 78.35 60.8189453125 78.2693359375 60 78.55 59.498046875 78.4900390625 59.05 78.45 48.3 77.45 37.75 80.65 27.15 83.8 18.75 90.55 11.4 96.45 10.95 102.5 10.85 104.2 11.35 105.6 12 107.2 13.25 107.85 14.5 108.55 16.3 108.25 17.3 108.05 19.5 107.25 35.9 101 56.5 102.5 58.2 102.6 61.55 102.85 64.45 103 66.55 102.85 67.3 102.8 68.75 102.65 70.05 102.55 70.95 102.6 72.95 102.7 73.5 102.3 73.7923828125 102.07734375 73.95 101.8 92.7046875 102.59921875 109.4 105.25 115.8 106.25 119.75 107.55 120.65 107.85 124.25 109.3 127 110.4 128.8 110.85 132.45 111.85 134.8 110.7 136.2 109.95 137.3 108.3 138.05 107.15 138.9 105.05 140.75 100.55 140.6 97.9 140.3 93.8 135.7 89.1 135.12890625 88.515234375 134.55 87.95 130.9376953125 84.5265625 127.1 82.5 117.7359375 77.512109375 102.15 79
M 107.4 96.85
Q 100.1 95.75 82.9 94.3 80.4 94.05 78.95 94.1 76.8 94.2 75.2 94.9 74.6 95.15 73.1 96.1 72.1646484375 96.6755859375 71.45 96.95 70.323046875 96.283203125 68.85 95.85 67.1 95.35 64.1 95 47.0232421875 93.015234375 29.95 96 26.3732421875 96.6521484375 22.8 97.5 24.990234375 95.650390625 27.35 94.1 34.708203125 89.2794921875 43.75 87.35 55.65 84.8 66.95 88 69.85 88.85 71.15 88.5 72.75 88.15 73.6 86.6 73.8986328125 86.0380859375 74 85.45 74.941015625 85.7888671875 75.65 85.95 78.25 86.6 83.1 86.6
L 94.35 86.75
Q 94.7978515625 87.2240234375 95.4 87.5 96.4 87.95 97.8 87.85 98.65 87.8 100.35 87.45 109.1 85.7 116.35 87.15 124.2154296875 88.77734375 129.2 93.65 129.751171875 94.1935546875 130.25 94.75 132.1 96.8 132.35 98.6 132.55 100.6 130.95 103.1 125.4064453125 100.7994140625 118.75 99.1 113.4384765625 97.7859375 107.4 96.85 Z"/>

<path fill="#FFFFFF" stroke="none" d="
M 22.8 97.5
Q 26.3732421875 96.6521484375 29.95 96 28.5525390625 95.208984375 27.35 94.1 24.990234375 95.650390625 22.8 97.5
M 130.25 94.75
Q 129.751171875 94.1935546875 129.2 93.65 124.6970703125 97.37890625 118.75 99.1 125.4064453125 100.7994140625 130.95 103.1 132.55 100.6 132.35 98.6 132.1 96.8 130.25 94.75 Z"/>

<path fill="#99CCFF" stroke="none" d="
M 82.9 94.3
Q 100.1 95.75 107.4 96.85 113.4384765625 97.7859375 118.75 99.1 124.6970703125 97.37890625 129.2 93.65 124.2154296875 88.77734375 116.35 87.15 109.1 85.7 100.35 87.45 98.65 87.8 97.8 87.85 96.4 87.95 95.4 87.5 94.7978515625 87.2240234375 94.35 86.75
L 83.1 86.6
Q 78.25 86.6 75.65 85.95 74.941015625 85.7888671875 74 85.45 73.8986328125 86.0380859375 73.6 86.6 72.75 88.15 71.15 88.5 69.85 88.85 66.95 88 55.65 84.8 43.75 87.35 34.708203125 89.2794921875 27.35 94.1 28.5525390625 95.208984375 29.95 96 47.0232421875 93.015234375 64.1 95 67.1 95.35 68.85 95.85 70.323046875 96.283203125 71.45 96.95 72.1646484375 96.6755859375 73.1 96.1 74.6 95.15 75.2 94.9 76.8 94.2 78.95 94.1 80.4 94.05 82.9 94.3 Z"/>
</g>

<g id="parts_tie_0_Layer0_0_FILL">
<path fill="#000000" stroke="none" d="
M 28.5 22.5
Q 30.15 21.1 30.65 19.9 31.1 18.6 30.75 17.45 30.55 16.45 29.2 14.55 23.45 6.75 19.85 2.5 18.4 0.8 17.35 0.35 16.25 -0.15 15 0.1 13.9 0.35 13.15 1.1 12.2 1.4 11.4 2.2 10.75 2.85 9.5 5.1 8.9 6 7.55 7.75 6.15 9.4 5.5 10.4 3.35 13.85 4.6 16.75 4.9 17.55 6.2 19.2 6.45 19.45 7.65 21.4
L 10.4 25.7
Q 8.65 28.05 7.8 29.5 6.6 31.5 5.05 35.3 2.95 40.5 0.85 47.25 0.15 49.5 0.05 50.8 -0.15 52.85 0.55 54.35 0.95 55.3 2 56.4 2.6 57.05 3.8 58.3 5.35 60.1 7.2 63.85 7.5087890625 64.453125 7.8 65 9.50078125 68.2654296875 10.4 69.55 12.05 71.85 13.8 72.1 15.75 72.3 18.35 69.7
L 24.95 63.15
Q 26.5 61.6 27.15 60.65 28.2 59.15 28.35 57.7 28.5 56.1 27.4 53.1
L 18.7 30.1
Q 18.65 29.9 18.55 29.7 18.75 29.55 19 29.4 20.35 28.35 20.95 27.85 21.45 27.45 25.15 25.05 26.9 23.85 28.5 22.5
M 15.75 10.3
Q 15.8 10.2 15.9 10.15 16.7783203125 11.164453125 17.65 12.25 18.4654296875 13.269140625 19.25 14.35 20.441015625 15.9322265625 21.6 17.65
L 16.75 20.95 16.25 20.15 13.05 15.3
Q 12.75 14.8 12.75 14.6 12.75 14.3 13.15 13.8
L 15.75 10.3
M 12.9 37.4
L 14.45 41.5 19.8 55.55
Q 19.95 55.95 19.9 56.25 19.9 56.6 19.4 57.15
L 14.85 61.65
Q 13.9435546875 59.6859375 13.15 58.25 12.68515625 57.312109375 12.25 56.6 10.65 53.9 8.75 52.2 8.25 51.8 8.2 51.4 8.15 51.1 8.25 50.75 10.25 43.95 12.9 37.4 Z"/>

<path fill="#660033" stroke="none" d="
M 15.3 55.55
L 13.15 58.25
Q 13.9435546875 59.6859375 14.85 61.65
L 19.4 57.15
Q 19.9 56.6 19.9 56.25 19.95 55.95 19.8 55.55
L 14.45 41.5 15.3 55.55
M 17.65 17.45
L 16.25 20.15 16.75 20.95 21.6 17.65
Q 20.441015625 15.9322265625 19.25 14.35 18.4654296875 13.269140625 17.65 12.25
L 17.65 17.45 Z"/>

<path fill="#FF0033" stroke="none" d="
M 14.45 41.5
L 12.9 37.4
Q 10.25 43.95 8.25 50.75 8.15 51.1 8.2 51.4 8.25 51.8 8.75 52.2 10.65 53.9 12.25 56.6 12.68515625 57.312109375 13.15 58.25
L 15.3 55.55 14.45 41.5
M 15.9 10.15
Q 15.8 10.2 15.75 10.3
L 13.15 13.8
Q 12.75 14.3 12.75 14.6 12.75 14.8 13.05 15.3
L 16.25 20.15 17.65 17.45 17.65 12.25
Q 16.7783203125 11.164453125 15.9 10.15 Z"/>
</g>

<g id="parts_Normal_HEad_1_Layer0_0_FILL">
<path fill="#000000" stroke="none" d="
M 159.7 39.9
Q 157.2349609375 33.189453125 153.65 27.5 144.43671875 12.841796875 127.8 5.4 107.309375 -3.99140625 84.9 -4.3 62.1607421875 -4.57109375 41.35 6.05 20.637890625 16.6455078125 7.8 36.9 6.828125 38.42421875 6 39.9 1.247265625 48.45625 1.25 56.6 1.2439453125 69.2822265625 12.75 80.75 29.70078125 97.6591796875 53.65 100 66.7560546875 101.5458984375 79.95 101.6 89.310546875 101.4923828125 98.75 100.75 122.68828125 98.812109375 141.9 83.85 147.5966796875 79.5970703125 152.3 74.1 152.4349609375 74.0517578125 152.55 74 153.55 73.55 154.15 72.65 154.6916015625 71.9 154.8 71 161.791015625 61.72734375 161.85 51.55
L 161.85 51.5
Q 161.8068359375 45.854296875 159.7 39.9
M 139.55 42
Q 140.4 44.35 140.75 46.8 140.89375 48.09453125 140.95 50.3 141.007421875 50.890625 141 51.55 141.04140625 51.8431640625 141.05 52.15 141.602734375 59.888671875 145.65 69 140.9173828125 75.2109375 132.5 79.95 111.7828125 91.6185546875 88 92.1 65.746484375 93.251171875 44 89.7 19.9271484375 86.0966796875 8.4 64.25 7.266796875 57.5736328125 8.4 51.55 10.1298828125 42.4259765625 17.1 34.8 22.407421875 29.1072265625 28.35 24.4 30.978125 26.4716796875 33.9 28.2 40.45 32.05 49.95 34.3 54.65 35.45 67.1 37.4 75.75 38.8 93.1 41.55 108 43.6 119.2 43.1 123.1 42.95 129.6 42.3 136.5046875 41.591796875 139.3 41.35 139.4111328125 41.6638671875 139.55 42
M 145.05 29
Q 149.075390625 34.2333984375 150.7 40.9 152.0154296875 46.521875 151.85 51.55 151.7416015625 55.6380859375 150.65 59.35 150.4501953125 58.672265625 150.25 57.95 149.0998046875 53.8025390625 148.35 51.55 148.0423828125 50.57109375 147.8 49.95 147.2 48.35 145.3 44.55 144.2169921875 42.3837890625 143.5 40.75 144.766796875 40.3146484375 145.5 39.5 146.5 38.4 146.45 36.85 146.4 35.25 145.35 34.25 144.4267578125 33.3267578125 142.65 33.05 140.9853515625 32.834765625 138.55 33.2 122.6 35.45 109.75 35 102.8 34.75 94.05 33.6 89.2 32.95 78.5 31.2
L 67.5 29.35 47.6 26.05
Q 41.3 24.95 38.95 24.25 35.536328125 23.2685546875 32.2 21.5 43.31015625 13.6037109375 56.6 8.9 78.160546875 1.2330078125 100.4 6.05 122.2466796875 10.76328125 140.55 24.2 143.109375 26.43828125 145.05 29 Z"/>

<path fill="#6A2D29" stroke="none" d="
M 128 30
Q 135.2111328125 29.395703125 141.9 29.1 141.3927734375 26.710546875 140.55 24.2 122.2466796875 10.76328125 100.4 6.05 78.160546875 1.2330078125 56.6 8.9 43.31015625 13.6037109375 32.2 21.5 35.536328125 23.2685546875 38.95 24.25 41.3 24.95 47.6 26.05
L 67.5 29.35
Q 75.8669921875 30.275 84.3 30.55 94 30.85 103.65 30.8 112.2 30.75 120.8 30.45 124.4 30.35 128 30 Z"/>

<path fill="#440C14" stroke="none" d="
M 150.7 40.9
Q 149.075390625 34.2333984375 145.05 29 143.109375 26.43828125 140.55 24.2 141.3927734375 26.710546875 141.9 29.1 135.2111328125 29.395703125 128 30 124.4 30.35 120.8 30.45 112.2 30.75 103.65 30.8 94 30.85 84.3 30.55 75.8669921875 30.275 67.5 29.35
L 78.5 31.2
Q 89.2 32.95 94.05 33.6 102.8 34.75 109.75 35 122.6 35.45 138.55 33.2 140.9853515625 32.834765625 142.65 33.05 144.4267578125 33.3267578125 145.35 34.25 146.4 35.25 146.45 36.85 146.5 38.4 145.5 39.5 144.766796875 40.3146484375 143.5 40.75 144.2169921875 42.3837890625 145.3 44.55 147.2 48.35 147.8 49.95 148.0423828125 50.57109375 148.35 51.55 149.0998046875 53.8025390625 150.25 57.95 150.4501953125 58.672265625 150.65 59.35 151.7416015625 55.6380859375 151.85 51.55 152.0154296875 46.521875 150.7 40.9 Z"/>

<path fill="#FF7E63" stroke="none" d="
M 141 51.55
L 140.5 51.55
Q 136.903515625 60.2201171875 128.2 67.4 109.4849609375 82.9013671875 85.25 83.35 62.5248046875 83.7470703125 40.4 78.4 23.176171875 74.38828125 8.4 64.25 19.9271484375 86.0966796875 44 89.7 65.746484375 93.251171875 88 92.1 111.7828125 91.6185546875 132.5 79.95 140.9173828125 75.2109375 145.65 69 141.602734375 59.888671875 141.05 52.15 141.04140625 51.8431640625 141 51.55 Z"/>

<path fill="#F9CE95" stroke="none" d="
M 140.75 46.8
Q 140.4 44.35 139.55 42 139.4111328125 41.6638671875 139.3 41.35 136.5046875 41.591796875 129.6 42.3 123.1 42.95 119.2 43.1 108 43.6 93.1 41.55 75.75 38.8 67.1 37.4 54.65 35.45 49.95 34.3 40.45 32.05 33.9 28.2 30.978125 26.4716796875 28.35 24.4 22.407421875 29.1072265625 17.1 34.8 10.1298828125 42.4259765625 8.4 51.55 7.266796875 57.5736328125 8.4 64.25 23.176171875 74.38828125 40.4 78.4 62.5248046875 83.7470703125 85.25 83.35 109.4849609375 82.9013671875 128.2 67.4 136.903515625 60.2201171875 140.5 51.55 140.7443359375 50.9291015625 140.95 50.3 140.89375 48.09453125 140.75 46.8 Z"/>
</g>

<g id="parts_Nicholas_Static_0_Layer0_0_FILL">
<path fill="#000000" stroke="none" d="
M 58.25 37.85
Q 57.45 37.75 56.05 38.35 54.6 39 54.1 39.4 53.55 39.9 52.95 40.75 52 42.15 51.75 42.9 51.5 43.7 51.4 44.85
L 51.3 47.05
Q 51.3 48 51.45 48.45 51.7 49.3 52.6 50.3 53.3 51 53.7 51.25 54.5 51.65 55.6 51.65 58.3 51.8 61.1 50.3 63.4 49 64.55 47.1 65.9 44.75 65.3 42.5
L 64.9 41.4
Q 63.75 39 61.75 38.45 61.35 38.35 60.5 38.3 59.6 38.2 59.2 38.1
L 58.25 37.85
M 110.9 61.7
Q 100.75 64.3 94.15 65.7 84.9 67.65 77.15 68.5 58.15 70.6 42.95 66.7 35.9 64.95 32.4 61.75 31.1 60.6 30.3 60.25 29.05 59.6 28.15 60.2 27.6 60.6 27.4 61.4 27.3 62.15 27.55 62.85 28 63.85 29.45 65 38.1 71.95 51.65 74.05 57.05 74.85 63.7 74.95 68.4 74.95 75.8 74.6 93.9 73.6 105.6 71.1 121.85 67.55 133.35 60 134.4 59.35 134.9 58.5 135.55 57.5 135.05 56.7 134.35 55.55 131.9 56.2 120.25 59.35 110.9 61.7
M 92.05 47.85
Q 92.35 48.55 92.8 49.05 93.2 49.4 94.3 49.95 95.8 50.55 96.55 50.65 97.35 50.8 98.55 50.5 99.05 50.4 100.05 50 102.65 48.7 103.4 45.6 103.7 44.15 103.55 42.6 103.45 41.55 103.15 40.85 102.25 39 99.6 38.55 97.2 38.05 94.7 39 93.7 39.45 93.15 40 92.75 40.35 92.1 41.45 91.55 42.35 91.3 43.05 90.65 45.15 92.05 47.85 Z"/>
</g>

<path id="icon_full_1_Layer1_0_1_STROKES" stroke="#150038" stroke-width="12" stroke-linejoin="round" stroke-linecap="round" fill="none" d="
M 57.25 6
L 199.8 6
Q 219.25 6 233 19.8 246.75 33.6 246.75 53.1
L 246.75 196
Q 246.75 215.5 233 229.3 219.25 243.1 199.8 243.1
L 57.25 243.1
Q 37.8 243.1 24.05 229.3 10.3 215.5 10.3 196
L 10.3 53.1
Q 10.3 33.6 24.05 19.8 37.8 6 57.25 6 Z"/>
</defs>

<g transform="matrix( 1, 0, 0, 1, -0.35,3.6) ">
<g transform="matrix( 1, 0, 0, 1, 0,0) ">
<use xlink:href="#icon_full_1_Layer1_0_FILL"/>

<use xlink:href="#icon_full_1_Layer1_0_1_STROKES"/>
</g>

<g transform="matrix( 1.7054290771484375, 0, 0, 1.7054290771484375, 0.05,10.3) ">
<g transform="matrix( 1.0016632080078125, 0, 0, 0.9985504150390625, -0.45,4.6) ">
<g transform="matrix( 1, 0, 0, 1, 0.35,36.75) ">
<g transform="matrix( 1, 0, 0, 1, 0,0) ">
<use xlink:href="#parts_body_0_Layer0_0_FILL"/>
</g>
</g>

<g transform="matrix( 1, 0, 0, 1, 0,0) ">
<use xlink:href="#parts_Nicholas_Static_0_Layer3_0_FILL"/>
</g>

<g transform="matrix( 1, 0, 0, 1, 52.35,93.95) ">
<g transform="matrix( 1, 0, 0, 1, 0,0) ">
<use xlink:href="#parts_tie_0_Layer0_0_FILL"/>
</g>
</g>

<g transform="matrix( 1, 0, 0, 1, 0,0) ">
<g transform="matrix( 1, 0, 0, 1, 0,0) ">
<use xlink:href="#parts_Normal_HEad_1_Layer0_0_FILL"/>
</g>
</g>

<g transform="matrix( 1, 0, 0, 1, 0,0) ">
<use xlink:href="#parts_Nicholas_Static_0_Layer0_0_FILL"/>
</g>
</g>
</g>
</g>
</svg>
